<svg width="216" height="24" viewBox="0 0 216 24" fill="none" xmlns="http://www.w3.org/2000/svg">
<g clip-path="url(#clip0_3091_96427)">
<path d="M131.91 7.32861C134.91 7.32865 137.64 8.67892 137.64 11.9038V21.0239H134.085V19.1489H133.98C133.597 19.8452 133.021 20.4167 132.321 20.7944C131.622 21.1721 130.828 21.34 130.035 21.2788C127.455 21.2788 125.55 19.929 125.55 17.2593C125.55 14.2593 127.95 13.3444 130.62 13.0894C132.975 12.8644 133.89 12.7585 133.89 11.8735C133.889 10.7639 133.17 10.1188 131.896 10.1187C131.384 10.0562 130.866 10.1709 130.43 10.4438C129.993 10.7168 129.663 11.1318 129.495 11.6187L126.03 11.3335C126.555 8.87375 128.67 7.32861 131.91 7.32861ZM61.1553 7.34424C65.2501 7.34437 67.7998 10.134 67.7998 14.3188C67.7998 18.5038 65.2501 21.2787 61.1553 21.2788C57.0603 21.2788 54.5098 18.4888 54.5098 14.3188C54.5098 10.1339 57.0603 7.34424 61.1553 7.34424ZM75.8398 7.34424C79.3648 7.34424 81.7198 9.39904 81.8398 12.519H78.2998C78.2612 11.9012 77.9856 11.3221 77.5303 10.9028C77.0747 10.4836 76.4744 10.2563 75.8555 10.269C74.1155 10.269 72.9746 11.7689 72.9746 14.2739C72.9746 16.7789 74.1005 18.3237 75.8555 18.3237C76.4744 18.3364 77.0747 18.1101 77.5303 17.6909C77.9859 17.2716 78.2612 16.6918 78.2998 16.0737H81.8398C81.6598 19.1787 79.3948 21.2788 75.8398 21.2788C71.6999 21.2787 69.21 18.4288 69.21 14.3188C69.21 10.1789 71.745 7.34431 75.8398 7.34424ZM103.245 7.34424C106.77 7.34428 109.14 9.39907 109.245 12.519H105.75C105.708 11.8997 105.429 11.3198 104.971 10.9009C104.513 10.482 103.911 10.256 103.29 10.269C101.55 10.269 100.41 11.7689 100.41 14.2739C100.41 16.7789 101.535 18.3237 103.29 18.3237C103.911 18.3367 104.513 18.1108 104.971 17.6919C105.429 17.2729 105.708 16.6931 105.75 16.0737H109.275C109.095 19.1786 106.845 21.2787 103.275 21.2788C99.1054 21.2788 96.6152 18.4288 96.6152 14.3188C96.6153 10.1789 99.1501 7.34424 103.245 7.34424ZM40.2002 3.02393C44.1749 3.02399 46.2 4.94369 46.2002 7.62842C46.2183 8.55821 45.8984 9.46357 45.2998 10.1753C44.7012 10.887 43.8644 11.357 42.9453 11.4985V11.6792C44.0488 11.7337 45.0857 12.2233 45.8281 13.0415C46.5705 13.8598 46.9582 14.9398 46.9053 16.0435C46.9053 18.9085 44.745 21.0239 40.71 21.0239H33V3.02393H40.2002ZM52.5449 21.0239H48.75V3.02393H52.4854L52.5449 21.0239ZM87.5547 12.6392H87.75L92.085 7.52393H96.375L91.3652 13.3735L96.6299 21.0239H92.25L88.5596 15.5786L87.5547 16.7339V21.0239H83.8047V3.02393H87.5547V12.6392ZM114.855 9.90869H115.02C115.325 9.10274 115.883 8.41696 116.61 7.95459C117.338 7.49227 118.195 7.2787 119.055 7.34424C121.86 7.34424 123.72 9.2642 123.72 12.4292V21.0239H119.97V13.0884C120.019 12.7516 119.993 12.4079 119.894 12.0825C119.794 11.7571 119.623 11.4578 119.394 11.2065C119.164 10.9552 118.881 10.7579 118.565 10.6294C118.25 10.501 117.91 10.4442 117.57 10.4634C117.211 10.4489 116.852 10.5123 116.519 10.6479C116.185 10.7836 115.885 10.989 115.638 11.2505C115.39 11.512 115.202 11.8232 115.085 12.1636C114.968 12.504 114.925 12.8659 114.96 13.2241V21.0239H111.225V3.02393H114.855V9.90869ZM143.805 21.0239H140.07V7.52393H143.805V21.0239ZM154.035 7.34424C156.855 7.34431 158.7 9.27926 158.7 12.4292V21.0239H154.95V13.0894C154.997 12.7529 154.969 12.4098 154.868 12.0854C154.767 11.7612 154.596 11.463 154.367 11.2124C154.138 10.9617 153.856 10.7646 153.542 10.6353C153.228 10.5059 152.889 10.4479 152.55 10.4644C152.193 10.4512 151.838 10.515 151.509 10.6519C151.179 10.7888 150.883 10.9953 150.641 11.2573C150.398 11.5194 150.216 11.8312 150.105 12.1704C149.995 12.5098 149.959 12.8696 150 13.2241L150.06 21.0239H146.25V7.52393H149.82V9.90869H149.97C150.292 9.10866 150.859 8.43056 151.589 7.97021C152.318 7.50998 153.174 7.29108 154.035 7.34424ZM133.92 14.6938C133.089 15.0187 132.215 15.2205 131.325 15.2935C130.005 15.4735 129.135 15.9993 129.135 17.0493C129.135 18.099 129.96 18.6235 131.115 18.6235C131.46 18.6521 131.806 18.6116 132.135 18.5044C132.463 18.3971 132.768 18.2259 133.029 17.9995C133.291 17.7731 133.503 17.496 133.656 17.186C133.809 16.8761 133.899 16.5389 133.92 16.1938V14.6938ZM61.1699 10.2241C59.325 10.2242 58.3047 11.9639 58.3047 14.3188C58.3047 16.6738 59.28 18.3989 61.1699 18.3989C62.9419 18.3989 63.8704 16.8695 63.9795 14.7378L63.9902 14.3188C63.9902 11.9639 63.0149 10.2241 61.1699 10.2241ZM39.9004 13.104H36.75V17.8735H39.9004C42.0299 17.8734 42.9003 16.9889 42.9004 15.6392C42.8915 15.2681 42.8039 14.9026 42.6436 14.5679C42.4832 14.2331 42.2532 13.9363 41.9697 13.6968C41.6864 13.4574 41.3556 13.2804 40.999 13.1782C40.6423 13.076 40.2676 13.0509 39.9004 13.104ZM36.75 10.5688L39.6299 10.5239C41.1299 10.5239 42.3447 9.66865 42.3447 8.24365C42.3446 6.8189 41.3851 6.06897 39.6904 6.06885H36.75V10.5688ZM141.083 1.92432C141.45 1.75249 141.861 1.69523 142.262 1.75928C142.662 1.82338 143.034 2.00598 143.329 2.28369C143.624 2.56152 143.83 2.92215 143.918 3.31787C144.006 3.7135 143.973 4.12645 143.824 4.50342C143.675 4.88047 143.416 5.20386 143.081 5.43213C142.746 5.66029 142.351 5.78291 141.945 5.78369C141.687 5.79169 141.43 5.74908 141.188 5.65771C140.947 5.56636 140.726 5.42819 140.538 5.25146C140.35 5.07455 140.198 4.86191 140.092 4.62646C139.986 4.39106 139.928 4.13644 139.92 3.87842C139.896 3.47388 139.994 3.07139 140.201 2.72314C140.409 2.37475 140.716 2.09615 141.083 1.92432Z" fill="white"/>
<path d="M173.7 7.34473C177.225 7.34479 179.595 9.39958 179.7 12.5195H176.25C176.208 11.9002 175.929 11.3203 175.471 10.9014C175.013 10.4825 174.411 10.2565 173.79 10.2695C172.05 10.2695 170.91 11.7694 170.91 14.2744C170.91 16.7793 172.05 18.3242 173.79 18.3242C174.411 18.3372 175.013 18.1104 175.471 17.6914C175.929 17.2725 176.208 16.6934 176.25 16.0742H179.775C179.61 19.1791 177.345 21.2792 173.775 21.2793C169.56 21.2793 167.085 18.4293 167.085 14.3193C167.085 10.1793 169.605 7.34473 173.7 7.34473ZM187.785 7.34473C191.88 7.34478 194.415 10.1344 194.415 14.3193C194.415 18.5043 191.88 21.2792 187.785 21.2793C183.69 21.2793 181.14 18.4893 181.14 14.3193C181.14 10.1343 183.69 7.34473 187.785 7.34473ZM163.35 17.0488C163.906 17.0488 164.441 17.2704 164.835 17.6641C165.229 18.0579 165.45 18.5925 165.45 19.1494C165.45 19.7062 165.229 20.24 164.835 20.6338C164.441 21.0276 163.907 21.249 163.35 21.249C163.073 21.249 162.799 21.1943 162.543 21.0879C162.287 20.9814 162.055 20.8255 161.859 20.6289C161.664 20.4324 161.51 20.1988 161.405 19.9424C161.301 19.6861 161.248 19.4115 161.25 19.1348C161.254 18.5805 161.477 18.0497 161.87 17.6592C162.263 17.2687 162.795 17.0489 163.35 17.0488ZM203.865 7.34473C204.679 7.28837 205.487 7.51189 206.155 7.97852C206.824 8.44514 207.312 9.12634 207.54 9.90918H207.75C208.201 9.02668 208.939 8.32348 209.843 7.91602C210.746 7.5088 211.761 7.42102 212.721 7.66699C213.681 7.9131 214.529 8.47866 215.125 9.27051C215.721 10.0623 216.029 11.0338 216 12.0244V21.0244H212.25V12.6846C212.285 12.3948 212.257 12.1 212.167 11.8223C212.077 11.5448 211.928 11.2902 211.729 11.0762C211.531 10.862 211.288 10.6938 211.018 10.583C210.748 10.4722 210.457 10.4216 210.165 10.4346C209.862 10.4242 209.561 10.4785 209.281 10.5947C209.002 10.711 208.75 10.8865 208.544 11.1084C208.338 11.3302 208.181 11.5935 208.086 11.8809C207.99 12.1683 207.958 12.4732 207.99 12.7744V21.0244H204.36V12.6094C204.389 12.3271 204.355 12.042 204.264 11.7734C204.172 11.5049 204.024 11.259 203.829 11.0527C203.634 10.8466 203.397 10.6848 203.135 10.5781C202.872 10.4714 202.588 10.4224 202.305 10.4346C201.994 10.4434 201.688 10.5153 201.406 10.6475C201.125 10.7796 200.873 10.9686 200.668 11.2021C200.462 11.4358 200.307 11.7096 200.212 12.0059C200.117 12.3019 200.084 12.6144 200.115 12.9238V21.0244H196.365L196.38 7.52441H199.95V9.90918H200.115C200.378 9.13298 200.885 8.46261 201.562 8C202.238 7.53741 203.047 7.30803 203.865 7.34473ZM187.8 10.2246C185.955 10.2248 184.935 11.9644 184.935 14.3193C184.935 16.6742 185.91 18.3993 187.8 18.3994C189.572 18.3994 190.5 16.8699 190.609 14.7383L190.62 14.3193C190.62 11.9643 189.645 10.2246 187.8 10.2246Z" fill="white"/>
<path d="M2.05353 8.72217L0.958534 9.81717C0.65546 10.1083 0.414334 10.4577 0.249619 10.8443C0.0849028 11.231 0 11.6469 0 12.0672C0 12.4874 0.0849028 12.9034 0.249619 13.29C0.414334 13.6766 0.65546 14.026 0.958534 14.3172L9.78001 23.2257C9.98909 23.4396 10.2324 23.617 10.5 23.7507V12.9522L2.05353 8.72217Z" fill="white"/>
<path d="M21.9465 8.72217L23.0415 9.81717C23.3445 10.1083 23.5857 10.4577 23.7504 10.8443C23.9151 11.231 24 11.6469 24 12.0672C24 12.4874 23.9151 12.9034 23.7504 13.29C23.5857 13.6766 23.3445 14.026 23.0415 14.3172L14.22 23.2257C14.0109 23.4396 13.7676 23.617 13.5 23.7507V12.9522L21.9465 8.72217Z" fill="white"/>
<path d="M19.8284 6.48695L14.3084 0.951954C14.0162 0.650761 13.6665 0.411296 13.28 0.247776C12.8935 0.0842556 12.4781 0 12.0584 0C11.6388 0 11.2234 0.0842556 10.8369 0.247776C10.4504 0.411296 10.1007 0.650761 9.80844 0.951954L4.27344 6.48695L12.0284 10.3569L19.8284 6.48695Z" fill="white"/>
</g>
<defs>
<clipPath id="clip0_3091_96427">
<rect width="216" height="24" fill="white"/>
</clipPath>
</defs>
</svg>
