<svg fill="none" height="492" viewBox="0 0 1440 492" width="1440" xmlns="http://www.w3.org/2000/svg" xmlns:xlink="http://www.w3.org/1999/xlink"><linearGradient id="a" gradientUnits="userSpaceOnUse" x1="1117" x2="1127" y1="490" y2="338"><stop offset="0" stop-color="#f0f2f7"/><stop offset="1" stop-color="#f0f2f7" stop-opacity="0"/></linearGradient><clipPath id="b"><path d="m0 0h1440v491.005h-1440z"/></clipPath><g clip-path="url(#b)" opacity=".5"><g stroke="#ccd2de" stroke-width="3"><g stroke-linecap="round"><path d="m540.46 277.814c-6.153 2.708-13.01 3.377-19.57 1.91-6.559-1.467-12.479-4.992-16.892-10.062-.553-.609-1.263-1.053-2.053-1.283-.789-.229-1.627-.236-2.42-.019-.793.218-1.51.65-2.072 1.251-.562.6-.947 1.344-1.112 2.15-5.593 26.798-12.5 100.841 66.467 147.289 76.902-49.769 66.881-123.454 60.113-149.988-.199-.799-.616-1.528-1.204-2.105-.588-.576-1.325-.979-2.128-1.162-.803-.182-1.642-.139-2.421.126-.78.266-1.471.742-1.997 1.377-3.912 4.879-9.189 8.483-15.157 10.352-5.969 1.869-12.359 1.919-18.356.142-5.996-1.776-11.328-5.297-15.316-10.116-3.988-4.818-6.451-10.714-7.075-16.937" stroke-miterlimit="10"/><path d="m549.058 325.014v-5.166c-.043-2.9 1.067-5.699 3.086-7.782 2.02-2.082 4.784-3.277 7.684-3.323 2.901-.043 5.699 1.067 7.782 3.087 2.082 2.02 3.277 4.783 3.323 7.684v5.223" stroke-miterlimit="10"/><path d="m560.652 361.418c10.946-.172 19.68-9.185 19.508-20.131s-9.185-19.68-20.131-19.509c-10.946.172-19.681 9.186-19.509 20.132s9.185 19.68 20.132 19.508z" stroke-miterlimit="10"/><path d="m564.246 338.7c-.022-.759-.258-1.497-.681-2.129-.423-.631-1.015-1.13-1.709-1.44-.694-.309-1.461-.417-2.214-.31-.752.107-1.459.425-2.038.916-.168.118-.313.267-.427.438-.343.447-.59.959-.726 1.506-.135.546-.157 1.115-.062 1.67.094.556.301 1.085.61 1.557.308.471.71.874 1.181 1.182.24.142.436.348.566.594s.19.524.172.802l-.323 3.517c-.016.175.005.352.062.519.056.167.147.32.267.449.119.13.265.233.427.302.162.07.336.104.513.102h1.153c.176-.002.35-.041.511-.115.16-.074.303-.18.42-.313.116-.133.203-.289.255-.457.053-.169.069-.347.048-.522l-.427-3.459c-.028-.278.022-.557.144-.808.122-.25.312-.462.548-.611.552-.372 1-.879 1.302-1.472.303-.592.45-1.253.428-1.918z" stroke-miterlimit="10"/><path d="m798.805 10.8516 79.877 79.8199 79.774-79.8199z" stroke-linejoin="round"/><path d="m1118.1 170.503 79.82-79.8199-79.82-79.8315z" stroke-linejoin="round"/><path d="m1197.91 169.929 79.26-79.2554-79.26-79.255z" stroke-linejoin="round"/><path d="m958.454 90.6726 79.816 79.8204 79.82-79.8204z" stroke-linejoin="round"/><path d="m1118.09 250.961-79.82-79.82-79.817 79.82z" stroke-linejoin="round"/><path d="m798.805 490.431c0-21.172-8.41-41.476-23.38-56.446-14.971-14.97-35.274-23.38-56.446-23.38-21.171 0-41.475 8.41-56.445 23.38s-23.38 35.274-23.38 56.446z" stroke-linejoin="round"/><path d="m1038.27 410.609c-21.17 0-41.468 8.41-56.437 23.379s-23.379 35.272-23.379 56.441h241.486l79.82-79.82-79.82-79.82" stroke-linejoin="round"/><path d="m1439.42 250.646c0-21.171-8.41-41.475-23.38-56.445s-35.28-23.381-56.45-23.381-41.47 8.411-56.44 23.381-23.38 35.274-23.38 56.445z" stroke-linejoin="round"/><path d="m1118.1 90.6724c0-21.1711-8.41-41.4751-23.38-56.4453s-35.28-23.3804-56.45-23.3804-41.472 8.4102-56.442 23.3804c-14.971 14.9702-23.381 35.2742-23.381 56.4453z" stroke-linejoin="round"/><path d="m878.683 374.206 44.062-44.062-44.062-44.061-44.107 44.061z" stroke-linejoin="round"/><path d="m878.682 317.482 44.062-44.061-44.062-44.05-44.061 44.061z" stroke-linejoin="round"/><path d="m1359.6 170.503 79.82-79.8199-79.82-79.8315-79.82 79.8199z" stroke-linejoin="round"/><path d="m160.222 330.144 79.82-79.82-79.82-79.82z" stroke-linejoin="round"/><path d="m240.044 330.144 79.821-79.82-79.821-79.82z" stroke-linejoin="round"/><path d="m559.332 250.961 79.82-79.82h-159.64" stroke-linejoin="round"/><path d="m479.515 330.791c0-21.171-8.41-41.475-23.38-56.446-14.971-14.97-35.275-23.38-56.446-23.38s-41.475 8.41-56.445 23.38c-14.97 14.971-23.38 35.275-23.38 56.446z" stroke-linejoin="round"/><path d="m319.863 10.8516c0 21.1711 8.41 41.4751 23.381 56.4453 14.97 14.9702 35.274 23.3804 56.445 23.3804s41.475-8.4102 56.445-23.3804c14.971-14.9702 23.381-35.2742 23.381-56.4453z" stroke-linejoin="round"/><path d="m80.39 250.324 79.82-79.82-79.82-79.8314-79.819932 79.8314z" stroke-linejoin="round"/><path d="m399.69 490.429 79.82-79.82-79.82-79.82-79.82 79.82z" stroke-linejoin="round"/><path d="m559.332 170.503 79.82-79.8199-79.82-79.8315-79.82 79.8199z" stroke-linejoin="round"/><path d="m80.39 409.964c44.083 0 79.82-35.736 79.82-79.82 0-44.083-35.737-79.82-79.82-79.82-44.0833 0-79.819932 35.737-79.819932 79.82 0 44.084 35.736632 79.82 79.819932 79.82z" stroke-linejoin="round"/><path d="m718.984 410.612c44.083 0 79.82-35.737 79.82-79.82 0-44.084-35.737-79.82-79.82-79.82s-79.82 35.736-79.82 79.82c0 44.083 35.737 79.82 79.82 79.82z" stroke-linejoin="round"/><path d="m718.984 410.612c44.083 0 79.82-35.737 79.82-79.82 0-44.084-35.737-79.82-79.82-79.82s-79.82 35.736-79.82 79.82c0 44.083 35.737 79.82 79.82 79.82z" stroke-linejoin="round"/><path d="m718.982 367.658c20.361 0 36.866-16.506 36.866-36.866 0-20.361-16.505-36.866-36.866-36.866-20.36 0-36.865 16.505-36.865 36.866 0 20.36 16.505 36.866 36.865 36.866z" stroke-linejoin="round"/><path d="m798.806 90.6726v240.1174" stroke-linejoin="round"/><path d="m639.154 90.6726v240.1174" stroke-linejoin="round"/><path d="m343.245 227.582 112.892-112.892m-56.446 136.266v-159.6396zm56.446-23.374-112.892-112.892zm-136.266-56.446h159.64z" stroke-linejoin="round"/><path d="m981.828 386.59 112.892-112.891m-56.45 136.277v-159.652zm56.45-23.386-112.892-112.891zm-136.266-56.446h159.636z" stroke-linejoin="round"/></g><path d="m121.775 421.748c.09-8.37 2.722-16.515 7.546-23.356s11.613-12.055 19.467-14.951c7.853-2.896 16.402-3.338 24.512-1.266 8.111 2.072 15.4 6.559 20.903 12.867 4.914-12.93 14.391-23.614 26.641-30.036 12.251-6.422 26.428-8.139 39.857-4.827 13.43 3.313 25.182 11.426 33.041 22.809 7.858 11.383 11.279 25.248 9.617 38.979 8.284.928 15.936 4.876 21.492 11.09 5.557 6.214 8.628 14.258 8.628 22.593 0 8.989-3.571 17.609-9.927 23.965-6.355 6.355-14.976 9.926-23.964 9.926h-180.223c-10.337 0-20.2511-4.106-27.5605-11.416-7.3094-7.309-11.4158-17.223-11.4158-27.56v-40.59" stroke-miterlimit="10"/><path d="m718.93 52.6644c-15.296-.0004-30.398 3.416-44.204 9.9997-13.805 6.5837-25.966 16.1684-35.593 28.0538 9.661 11.8621 21.846 21.4201 35.667 27.9781 13.822 6.558 28.933 9.951 44.231 9.931 15.299-.02 30.4-3.452 44.205-10.046 13.804-6.594 25.964-16.183 35.594-28.0707-9.658-11.861-21.845-21.4144-35.668-27.9622-13.824-6.5478-28.936-9.9246-44.232-9.8837z" stroke-miterlimit="10"/><path d="m718.858 118.5c14.864 0 26.914-12.05 26.914-26.914 0-14.8642-12.05-26.9141-26.914-26.9141-14.865 0-26.915 12.0499-26.915 26.9141 0 14.864 12.05 26.914 26.915 26.914z" stroke-miterlimit="10"/><path d="m1199.25 268.935c12.07-.109 24.01 2.547 34.89 7.764s20.43 12.857 27.9 22.333c10.55-13.793 16.27-30.67 16.28-48.034.01-17.363-5.68-34.248-16.21-48.057-7.29 9.919-16.8 18.001-27.76 23.605-10.97 5.603-23.09 8.574-35.4 8.677s-24.47-2.665-35.53-8.084c-11.06-5.42-20.7-13.341-28.15-23.137-10.29 13.986-15.69 30.966-15.38 48.325.31 17.358 6.31 34.133 17.09 47.743 7.32-9.598 16.73-17.394 27.53-22.791 10.79-5.396 22.68-8.251 34.74-8.344z" stroke-miterlimit="10"/><path d="m1158.89 319.19c12.27-7.51 26.35-11.542 40.73-11.662 14.38-.119 28.53 3.677 40.92 10.982 8.31-5.115 15.62-11.717 21.55-19.477-7.48-9.472-17.03-17.109-27.91-22.327-10.88-5.217-22.81-7.878-34.88-7.778s-23.95 2.959-34.75 8.356c-10.79 5.398-20.21 13.192-27.53 22.787 6.06 7.662 13.47 14.143 21.87 19.119z" stroke-miterlimit="10"/><path d="m1158.89 319.188c12.39 7.305 26.54 11.101 40.92 10.981 14.38-.119 28.46-4.151 40.73-11.661-12.39-7.306-26.54-11.102-40.92-10.982s-28.46 4.151-40.73 11.662z" stroke-miterlimit="10"/><path d="m1198.99 235.242c12.31-.098 24.43-3.067 35.39-8.672 10.96-5.606 20.46-13.692 27.74-23.616-5.79-7.584-12.91-14.064-21-19.131-12.64 8.222-27.38 12.657-42.46 12.784s-29.89-4.061-42.67-12.069c-8 5.201-15.01 11.798-20.68 19.477 7.45 9.802 17.09 17.729 28.14 23.15 11.06 5.422 23.23 8.187 35.54 8.077z" stroke-miterlimit="10"/><path d="m1241.13 183.823c-12.79-8.007-27.59-12.193-42.68-12.066-15.08.126-29.81 4.561-42.46 12.781 12.78 8.008 27.59 12.195 42.67 12.069 15.09-.127 29.82-4.562 42.47-12.784z" stroke-miterlimit="10"/><path d="m1278.33 250.301-158.42 1.326" stroke-miterlimit="10"/><path d="m1213.21 328.897c12.52-8.854 22.72-20.607 29.71-34.256 7-13.649 10.59-28.789 10.46-44.126-.12-15.337-3.96-30.416-11.17-43.95-7.22-13.534-17.61-25.119-30.27-33.768" stroke-miterlimit="10"/><path d="m1186.44 329.131c-12.68-8.644-23.08-20.23-30.3-33.768-7.23-13.538-11.08-28.624-11.2-43.97-.13-15.346 3.46-30.495 10.46-44.151 7-13.657 17.2-25.415 29.74-34.269" stroke-miterlimit="10"/><path d="m1198.46 171.75 1.31 158.43" stroke-miterlimit="10"/><path d="m885.2 91.3164h-13.146c-37.511 0-67.919 30.7656-67.919 68.7036s30.408 68.704 67.919 68.704h13.146" stroke-linecap="round" stroke-miterlimit="10"/><path d="m885.197 228.724c37.511 0 67.92-30.76 67.92-68.704s-30.409-68.7036-67.92-68.7036-67.92 30.7596-67.92 68.7036 30.409 68.704 67.92 68.704z" stroke-linecap="round" stroke-miterlimit="10"/><path d="m922.699 378.07h-88.123v112.373h88.123z" stroke-linecap="round" stroke-linejoin="round"/><path d="m1387.74 331.219h-56.29c-10.59 0-19.17 8.58-19.17 19.165v120.895c0 10.584 8.58 19.165 19.17 19.165h56.29c10.59 0 19.17-8.581 19.17-19.165v-120.895c0-10.585-8.58-19.165-19.17-19.165z" stroke-linecap="round" stroke-miterlimit="10"/><path d="m1356.38 335.656h6.44" stroke-linecap="round" stroke-miterlimit="10"/><path d="m1313.3 477.411h92.59" stroke-linecap="round" stroke-miterlimit="10"/><path d="m1355.04 484.27h9.11" stroke-linecap="round" stroke-miterlimit="10"/><path d="m1319.18 335.656h21.79c.37 0 .72.145.97.402.26.258.41.607.41.97 0 .612.24 1.199.67 1.631.43.433 1.02.676 1.63.676h29.98c.62 0 1.2-.243 1.63-.676.44-.432.68-1.019.68-1.631 0-.363.14-.712.4-.97.26-.257.61-.402.97-.402h21.67" stroke-linecap="round" stroke-miterlimit="10"/><path d="m1337.79 441.248v-16.282" stroke-linecap="round" stroke-miterlimit="10"/><path d="m1346.51 441.252v-35.182" stroke-linecap="round" stroke-miterlimit="10"/><path d="m1355.24 441.248v-47.244" stroke-linecap="round" stroke-miterlimit="10"/><path d="m1363.95 441.248v-30.42" stroke-linecap="round" stroke-miterlimit="10"/><path d="m1372.68 441.248v-57.495" stroke-linecap="round" stroke-miterlimit="10"/><path d="m1381.4 441.248v-47.244" stroke-linecap="round" stroke-miterlimit="10"/><path d="m1359.6 330.283v-24.215c0-4.753 1.89-9.311 5.25-12.672 3.36-3.36 7.91-5.248 12.67-5.248h11.53c4.75 0 9.31-1.888 12.67-5.249 3.36-3.36 5.25-7.918 5.25-12.671v-19.153" stroke-linecap="round" stroke-linejoin="round"/><path d="m1296.03 425.531c8.43 0 15.26-6.836 15.26-15.268s-6.83-15.267-15.26-15.267c-8.44 0-15.27 6.835-15.27 15.267s6.83 15.268 15.27 15.268z" stroke-linecap="round" stroke-linejoin="round"/><path d="m271.394 31.529c4.987 4.907 8.947 10.7586 11.648 17.2131 2.7 6.4545 4.087 13.3824 4.081 20.3791v1.3376c0 2.6577.595 5.2817 1.741 7.6799l10.655 22.3243c.281.588.409 1.238.373 1.888-.036.651-.236 1.282-.581 1.835s-.823 1.01-1.392 1.329c-.568.319-1.208.489-1.86.495h-4.508c-1.163 0-2.277.462-3.099 1.283-.822.822-1.283 1.937-1.283 3.099v6.504c0 14.01-5.566 27.446-15.472 37.353-9.907 9.906-23.343 15.472-37.353 15.472h-21.345c-14.01 0-27.446-5.566-37.353-15.472-9.907-9.907-15.472-23.343-15.472-37.353v-63.5267c.004-6.5896 1.486-13.0945 4.337-19.0354s6.999-11.1664 12.137-15.2915c5.139-4.1252 11.138-7.0448 17.555-8.5439 6.417-1.49912 13.088-1.53944 19.523-.118 10.113 2.0554 20.602 1.1957 30.246-2.47925l15.383-6.15774c2.39-.958089 4.978-1.315471 7.537-1.040819 2.56.274651 5.013 1.172949 7.145 2.616169s3.877 3.3873 5.083 5.66185c1.206 2.27459 1.835 4.81019 1.833 7.38459-.003 2.2143-.442 4.4064-1.293 6.4507-.851 2.0444-2.097 3.9009-3.666 5.4635s-3.43 2.8005-5.478 3.643-4.242 1.2731-6.456 1.267h-23.409c-2.759-.0007-5.485.6023-7.986 1.7668-2.502 1.1646-4.718 2.8623-6.494 4.9742-1.775 2.1119-3.067 4.5868-3.785 7.251s-.844 5.4532-.369 8.1712l3.667 21.333c.245 1.4313-.074 2.902-.892 4.1023-.817 1.2003-2.069 2.0364-3.49 2.3322-1.283.2789-2.624.0935-3.783-.523-1.159-.6166-2.062-1.6244-2.548-2.8441-3.932-10.3782-16.674-11.4161-24.216-2.4331-5.177 6.1577-2.986 13.7223-.461 18.7153.813 1.64 1.027 3.5124.606 5.2937-.421 1.781-1.451 3.359-2.912 4.462l-26.961 20.56" stroke-miterlimit="10"/><path d="m278.703 75.707c-.566 1.0558-1.407 1.9384-2.434 2.5538-1.028.6153-2.203.9402-3.401.9402s-2.373-.3249-3.4-.9402c-1.028-.6154-1.869-1.498-2.435-2.5538" stroke-linecap="round" stroke-miterlimit="10"/><path d="m268.188 107.832s4.024 13.249 19.199 11.243" stroke-linecap="round" stroke-miterlimit="10"/></g><path d="m0 317h1439v173h-1439z" fill="url(#a)"/></g></svg>