<svg fill="none" height="24" viewBox="0 0 24 24" width="24" xmlns="http://www.w3.org/2000/svg" xmlns:xlink="http://www.w3.org/1999/xlink"><clipPath id="a"><path d="m0 0h24v24h-24z"/></clipPath><g clip-path="url(#a)"><path d="m12 24c6.6274 0 12-5.3726 12-12 0-6.62742-5.3726-12-12-12-6.62742 0-12 5.37258-12 12 0 6.6274 5.37258 12 12 12z" fill="#627eea"/><g fill="#fff"><path d="m12.375 3v6.6525l5.6228 2.5125z" fill-opacity=".602"/><path d="m12.3735 3-5.6235 9.165 5.6235-2.5125z"/><path d="m12.375 16.4749v4.5203l5.6265-7.7843z" fill-opacity=".602"/><path d="m12.3735 20.9952v-4.521l-5.6235-3.2633z"/><path d="m12.375 15.4281 5.6228-3.2648-5.6228-2.51096z" fill-opacity=".2"/><path d="m6.75 12.1633 5.6235 3.2648v-5.77576z" fill-opacity=".602"/></g></g></svg>