<svg fill="none" height="224" viewBox="0 0 1139 224" width="1139" xmlns="http://www.w3.org/2000/svg"><g fill="#ab9ff2"><path d="m31.8292 224c34.3256 0 60.1218-29.853 75.5158-53.443-1.872 5.219-2.912 10.438-2.912 15.449 0 13.778 7.905 23.59 23.508 23.59 21.427 0 44.311-18.789 56.169-39.039-.832 2.923-1.248 5.637-1.248 8.142 0 9.603 5.409 15.657 16.434 15.657 34.742 0 69.692-61.584 69.692-115.4445 0-41.9609-21.22-78.9115-74.476-78.9115-93.616 0-194.512 114.401-194.512 188.302 0 29.018 15.6025 35.698 31.8292 35.698zm130.4368-149.6813c0-10.438 5.825-17.7446 14.355-17.7446 8.321 0 14.146 7.3066 14.146 17.7446 0 10.4381-5.825 17.9534-14.146 17.9534-8.53 0-14.355-7.5153-14.355-17.9534zm44.52 0c0-10.438 5.825-17.7446 14.354-17.7446 8.321 0 14.146 7.3066 14.146 17.7446 0 10.4381-5.825 17.9534-14.146 17.9534-8.529 0-14.354-7.5153-14.354-17.9534z"/><path d="m310.588 201.245h31.205v-30.688c0-14.404-1.248-19.832-8.529-34.445l3.952-2.088c10.61 24.843 25.589 33.819 40.983 33.819 24.756 0 44.519-21.711 44.519-55.321 0-32.1492-18.099-55.7392-44.103-55.7392-15.394 0-30.789 8.768-41.399 33.8193l-3.952-2.0877c4.993-10.0205 8.529-19.4147 8.529-28.3914h-31.205zm31.205-88.932c0-13.778 10.402-29.0176 25.796-29.0176 12.482 0 22.676 10.2293 22.676 28.8086 0 18.371-9.778 29.227-22.884 29.227-14.562 0-25.588-14.822-25.588-29.018z"/><path d="m434.108 164.503h31.205v-36.742c0-25.886 9.154-44.2568 26.212-44.2568 10.818 0 14.147 7.3066 14.147 25.4688v55.53h31.205v-60.54c0-32.9844-11.858-47.1802-34.534-47.1802-23.3 0-30.997 15.6571-39.942 34.6543l-3.953-2.0876c5.409-11.6906 6.865-18.7884 6.865-29.2265v-36.1155h-31.205z"/><path d="m582.482 167.843c20.179 0 32.037-13.36 40.982-30.479l3.745 1.879c-3.953 8.142-7.697 17.536-7.697 25.26h30.581v-56.783c0-33.8188-14.147-50.9372-47.224-50.9372-32.453 0-48.472 16.2834-51.592 33.4017l29.957 5.219c1.04-8.9767 8.321-15.0307 19.971-15.0307s18.307 5.8453 18.307 12.9431c0 7.0981-6.865 10.4381-25.172 10.6471-27.045.417-47.016 10.229-47.016 31.105 0 17.118 13.522 32.775 35.158 32.775zm-4.161-34.863c0-16.492 26.212-5.01 40.567-17.744v3.757c0 14.822-13.106 25.678-26.213 25.678-6.865 0-14.354-2.923-14.354-11.691z"/><path d="m662.458 164.503h31.205v-36.742c0-25.886 9.153-44.2568 26.212-44.2568 10.818 0 14.146 7.3066 14.146 25.4688v55.53h31.206v-60.54c0-32.9844-11.858-47.1802-34.534-47.1802-23.3 0-30.997 15.6571-39.943 34.6543l-3.952-2.0876c5.409-11.6906 6.865-18.7884 6.865-29.2265h-31.205z"/><path d="m848.341 164.921v-25.887c-6.657 2.297-25.172 6.263-25.172-8.976v-44.8837h24.964v-25.0513h-24.964v-27.9739l-31.413 9.3942v18.5797h-18.723v25.0513h18.723l.208 47.3887c0 34.863 30.997 39.873 56.377 32.358z"/><path d="m911.728 167.843c31.621 0 55.753-24.216 55.753-55.739 0-31.3137-24.132-55.3212-55.753-55.3212s-55.961 24.0075-55.961 55.3212c0 31.523 24.34 55.739 55.961 55.739zm-23.716-55.53c0-17.327 9.778-29.4351 23.716-29.4351s23.508 12.1081 23.508 29.4351-9.57 29.435-23.508 29.435-23.716-12.108-23.716-29.435z"/><path d="m977.15 164.503h31.2v-36.742c0-26.93 8.53-44.2568 22.26-44.2568 8.95 0 11.86 7.0979 11.86 25.4688v55.53h31.21v-36.742c0-25.26 9.15-44.2568 22.26-44.2568 8.73 0 11.85 8.1417 11.85 25.4688v55.53h31.21v-60.54c0-33.1932-10.82-47.1802-32.04-47.1802-22.05 0-29.95 15.6571-37.65 34.8631l-3.75-1.8789c7.29-21.9198-8.53-32.9842-24.13-32.9842-20.59 0-28.08 15.6571-36.4 34.6543l-3.75-2.0876c5.2-11.6906 7.07-18.7884 7.07-29.2265h-31.2z"/></g></svg>